<svg width="57" height="49" viewBox="0 0 57 49" fill="none" xmlns="http://www.w3.org/2000/svg">
<path d="M31.6664 25.0056C31.6664 23.2612 30.2468 21.845 28.504 21.845C26.7605 21.845 25.3434 23.2612 25.3434 25.0056C25.3434 26.7465 26.7605 28.1661 28.504 28.1661C30.2471 28.1661 31.6664 26.7465 31.6664 25.0056ZM28.5027 25.5951C28.1786 25.5951 27.9135 25.3306 27.9135 25.0059C27.9135 24.6811 28.177 24.4167 28.5027 24.4167C28.8281 24.4167 29.0925 24.6811 29.0925 25.0059C29.0925 25.3306 28.8265 25.5951 28.5027 25.5951ZM53.841 11.6266C52.0966 11.6266 50.6805 13.0421 50.6805 14.7871C50.6805 15.4646 50.8983 16.0865 51.2595 16.603L38.4799 26.5293L29.8084 6.94259C30.8998 6.44038 31.6598 5.34866 31.6598 4.07314C31.6598 2.32811 30.2436 0.912598 28.5008 0.912598C26.7573 0.912598 25.3396 2.32811 25.3396 4.07314C25.3396 5.34898 26.1031 6.44038 27.1926 6.94259L18.5528 26.4586L5.7427 16.6026C6.10427 16.0861 6.32205 15.4643 6.32205 14.7868C6.32205 13.0418 4.90431 11.6263 3.16055 11.6263C1.41774 11.6266 0 13.0421 0 14.7871C0 16.529 1.41774 17.948 3.16055 17.948C3.22912 17.948 3.29451 17.9312 3.36149 17.928L12.4558 41.4185C12.6476 41.914 13.1238 42.2387 13.6536 42.2387H43.3464C43.8804 42.2387 44.354 41.9172 44.5435 41.4185L53.6385 17.928C53.7055 17.9312 53.7706 17.948 53.8375 17.948C55.5838 17.948 57 16.5293 57 14.7871C57.0035 13.0421 55.5838 11.6266 53.841 11.6266ZM28.5027 3.48395C28.8268 3.48395 29.0925 3.74776 29.0925 4.07314C29.0925 4.39885 28.8281 4.66233 28.5027 4.66233C28.177 4.66233 27.9135 4.39885 27.9135 4.07314C27.9132 3.74744 28.1786 3.48395 28.5027 3.48395ZM28.5027 10.3368L36.3911 28.1563L28.6119 34.1961L20.6512 28.0725L28.5027 10.3368ZM2.57453 14.7871C2.57453 14.4633 2.83833 14.1979 3.16467 14.1979C3.49038 14.1979 3.75386 14.4617 3.75386 14.7871C3.75386 15.1128 3.49006 15.3763 3.16467 15.3763C2.83833 15.3763 2.57453 15.1109 2.57453 14.7871ZM17.484 28.8794L13.6828 37.464L7.33821 21.073L17.484 28.8794ZM15.5186 39.6671L19.5814 30.4934L26.5135 35.8272L21.5702 39.6674H15.5186V39.6671ZM25.7612 39.6671L28.6189 37.4475L31.5077 39.6671H25.7612ZM35.393 39.4125L30.7188 35.8167L37.4621 30.5768L41.4884 39.6671H35.646C35.5755 39.5734 35.4917 39.4896 35.393 39.4125ZM43.3213 37.464L39.5548 28.9528L49.651 21.1073L43.3213 37.464ZM53.841 15.3763C53.5195 15.3763 53.2518 15.1128 53.2518 14.7871C53.2518 14.4617 53.5131 14.1979 53.841 14.1979C54.1693 14.1979 54.4318 14.4617 54.4318 14.7871C54.4318 15.1128 54.1693 15.3763 53.841 15.3763ZM44.5016 46.8018C44.5016 47.5116 43.9258 48.0875 43.2156 48.0875H13.7876C13.0777 48.0875 12.5019 47.5119 12.5019 46.8018C12.5019 46.0917 13.0777 45.5161 13.7876 45.5161H43.2156C43.9289 45.5161 44.5016 46.092 44.5016 46.8018Z" fill="#C75E90"/>
</svg>
