<svg width="44" height="43" viewBox="0 0 44 43" fill="none" xmlns="http://www.w3.org/2000/svg">
<path d="M16.0664 19.7999C16.7291 18.9163 17.9826 18.7379 18.8662 19.4005L27.5332 25.9005L27.6299 25.9767C28.0973 26.3744 28.3573 26.9674 28.331 27.5851C28.303 28.2439 27.9527 28.8469 27.3935 29.1964L20.5303 33.4845L24.1123 38.5001H26.7666C28.6198 38.5001 29.8895 38.4985 30.873 38.4181C31.8332 38.3396 32.3436 38.1966 32.71 38.0099L33.0195 37.8361C33.7243 37.4038 34.2982 36.784 34.6758 36.0431L34.7441 35.8986C34.8977 35.5425 35.0163 35.0466 35.085 34.2062C35.1653 33.2227 35.167 31.9527 35.167 30.0997V16.9533L28.2412 9.2599C26.8794 7.74709 25.9413 6.70645 25.1514 5.96595C24.4736 5.33062 24.0143 5.02384 23.6357 4.86146L23.4775 4.79994C22.5793 4.48711 21.6062 4.46751 20.6982 4.74134L20.5176 4.80091C20.108 4.94362 19.6183 5.24053 18.8437 5.96693C18.2514 6.52242 17.5755 7.24645 16.7002 8.21204L15.7539 9.26087L8.833 16.9513V30.0997C8.833 31.9527 8.83469 33.2227 8.91503 34.2062C8.99348 35.1664 9.13761 35.6769 9.32421 36.0431L9.49706 36.3527C9.92945 37.0578 10.5492 37.6324 11.29 38.0099L11.4355 38.0773C11.7916 38.2308 12.287 38.3495 13.1269 38.4181C14.1105 38.4985 15.3802 38.5001 17.2334 38.5001H19.1973L16.0391 34.0792L15.9287 33.9054C15.6922 33.4898 15.6111 33.001 15.7051 32.5275C15.8125 31.9863 16.1386 31.5133 16.6064 31.2208L22.7998 27.3488L16.4668 22.5997C15.5832 21.937 15.4037 20.6836 16.0664 19.7999ZM39.167 30.0997C39.167 31.8868 39.168 33.3481 39.0713 34.5324C38.9849 35.5889 38.8132 36.5596 38.4219 37.4718L38.2402 37.8585C37.4764 39.3578 36.286 40.5949 34.8223 41.4152L34.5254 41.5734C33.5013 42.0951 32.4066 42.3067 31.1992 42.4054C30.015 42.5022 28.5538 42.5001 26.7666 42.5001H17.2334C15.4462 42.5001 13.985 42.5022 12.8008 42.4054C11.7445 42.3191 10.7743 42.1462 9.8623 41.755L9.4746 41.5734C7.97507 40.8094 6.73811 39.6191 5.91796 38.1554L5.75976 37.8585C5.23808 36.8346 5.02736 35.7397 4.9287 34.5324C4.83195 33.3481 4.833 31.8868 4.833 30.0997V21.3966L3.98632 22.338C3.24744 23.1589 1.98311 23.2253 1.1621 22.4865C0.341242 21.7476 0.274877 20.4832 1.01366 19.6622L13.7226 5.54017C14.6223 4.54736 15.4005 3.71192 16.1074 3.04896C17.0653 2.15068 18.0343 1.43013 19.2012 1.02357L19.542 0.91224C21.2571 0.394656 23.0955 0.431426 24.793 1.02259L25.0098 1.10267C26.0812 1.51997 26.9886 2.20607 27.8867 3.04798C28.8295 3.93185 29.8994 5.12277 31.2148 6.58412L42.9863 19.6622C43.7253 20.4832 43.6588 21.7475 42.8379 22.4865C42.0169 23.2254 40.7526 23.159 40.0137 22.338L39.167 21.3966V30.0997Z" fill="white"/>
</svg>
