<svg width="41" height="41" viewBox="0 0 41 41" fill="none" xmlns="http://www.w3.org/2000/svg">
<path d="M39.624 35.7712V30.0129C39.6474 29.0716 39.3233 28.1545 38.7134 27.4361C36.9934 25.4101 31.0944 24.1141 28.756 24.6119C26.9333 24.9998 25.658 26.83 24.4113 28.0743C19.5964 25.3419 15.6097 21.3631 12.8719 16.5578C14.1187 15.3135 15.9525 14.0408 16.3412 12.2216C16.8391 9.89152 15.545 4.03017 13.533 2.30329C12.8253 1.69588 11.9205 1.36602 10.9871 1.37519H5.21747C3.01909 1.37725 1.1901 3.34901 1.39026 5.55952C1.37524 24.6119 16.2502 39.625 35.4313 39.61C37.6537 39.8105 39.6329 37.9724 39.624 35.7712Z" stroke="white" stroke-width="2.6" stroke-linecap="round" stroke-linejoin="round"/>
</svg>
