<svg width="32" height="68" viewBox="0 0 32 68" fill="none" xmlns="http://www.w3.org/2000/svg">
<path d="M0.333254 8.23047C0.333303 5.7839 1.08836 3.69863 2.57739 2.22461C4.0655 0.751659 6.17439 6.54598e-05 8.66626 0H23.3333V0.000976562C25.8191 -0.0301372 27.9295 0.723076 29.4192 2.21875C30.9092 3.71478 31.6662 5.84021 31.6663 8.33301V37.667C31.6662 50.69 27.9384 58.3574 22.5911 62.7324C17.2822 67.0759 10.5818 68 5.00025 68C4.10805 68 3.35379 68.0014 2.76978 67.9365C2.19313 67.8725 1.56122 67.726 1.08423 67.249C0.607252 66.772 0.460803 66.1401 0.396731 65.5635C0.331852 64.9795 0.333254 64.2252 0.333254 63.333V56.1133C0.333254 55.1994 0.332262 54.4297 0.396731 53.833C0.460217 53.2456 0.604492 52.6083 1.07154 52.123C1.54524 51.6312 2.17753 51.4729 2.76197 51.4033C3.35008 51.3333 4.10691 51.333 5.00025 51.333C6.50813 51.3329 8.09971 50.5693 9.33423 49.335C10.5689 48.1003 11.3333 46.5081 11.3333 45V41.333C11.3333 40.3923 11.3321 39.7714 11.2825 39.3242C11.232 38.8696 11.1496 38.8134 11.1682 38.832C11.1864 38.8501 11.1294 38.7682 10.676 38.7178C10.2288 38.6681 9.60736 38.667 8.66626 38.667C6.17431 38.6669 4.06362 37.9148 2.57447 36.4258C1.08524 34.9366 0.333254 32.8252 0.333254 30.333V8.23047ZM2.33325 30.333C2.33325 32.4242 2.95692 33.9801 3.98853 35.0117C5.02008 36.0432 6.57537 36.6669 8.66626 36.667C9.55848 36.667 10.3127 36.6656 10.8967 36.7305C11.4734 36.7945 12.1053 36.941 12.5823 37.418C13.0592 37.8949 13.2057 38.5269 13.2698 39.1035C13.3346 39.6874 13.3333 40.4411 13.3333 41.333V45C13.3333 47.1586 12.2636 49.2337 10.7483 50.749C9.23305 52.2641 7.15855 53.3329 5.00025 53.333C4.06027 53.333 3.44143 53.3369 2.99829 53.3896C2.5541 53.4425 2.49741 53.5256 2.51197 53.5107C2.50327 53.5215 2.43069 53.6253 2.38501 54.0479C2.33492 54.5115 2.33325 55.1521 2.33325 56.1133V63.333C2.33325 64.2741 2.33434 64.8955 2.38404 65.3428C2.43455 65.7974 2.51695 65.8536 2.49829 65.835C2.4797 65.8164 2.53609 65.8987 2.99048 65.9492C3.43771 65.9989 4.05915 66 5.00025 66C10.4184 66 16.5512 65.0907 21.3254 61.1846C26.0613 57.3097 29.6662 50.3101 29.6663 37.667V8.33301C29.6662 6.24285 29.0383 4.67014 28.0022 3.62988C26.9683 2.59191 25.4165 1.97172 23.3469 2H8.66626C6.57521 2.00006 5.01724 2.6235 3.98462 3.64551C2.95308 4.66655 2.3333 6.19672 2.33325 8.23047V30.333Z" fill="#C75E90"/>
</svg>
