<!-- Generated by IcoMoon.io -->
<svg version="1.1" xmlns="http://www.w3.org/2000/svg" width="32" height="32" viewBox="0 0 32 32">
<path fill="none" stroke-linejoin="round" stroke-linecap="round" stroke-miterlimit="4" stroke-width="2.0293" stroke="#000" d="M30.926 27.919v-4.494c0.018-0.735-0.235-1.45-0.711-2.011-1.342-1.581-5.947-2.593-7.772-2.204-1.423 0.303-2.418 1.731-3.391 2.702-3.758-2.133-6.87-5.238-9.006-8.989 0.973-0.971 2.404-1.964 2.708-3.384 0.389-1.819-0.621-6.393-2.192-7.741-0.552-0.474-1.259-0.732-1.987-0.724h-4.503c-1.716 0.002-3.143 1.541-2.987 3.266-0.012 14.87 11.598 26.588 26.569 26.576 1.735 0.157 3.279-1.278 3.272-2.996z"></path>
</svg>
